<svg xmlns="http://www.w3.org/2000/svg" width="30.109" height="36.059" viewBox="0 0 30.109 36.059">
  <g id="noun-bathroom-2244899" transform="translate(-131.008 -17.25)">
    <path id="Path_476" data-name="Path 476" d="M157.313,17.5a3.553,3.553,0,0,0-3.506,3.008,3.553,3.553,0,0,0-3.008,3.506v2.961a.592.592,0,0,0,.592.592h5.922a.592.592,0,0,0,.592-.592V24.014a3.553,3.553,0,0,0-2.9-3.488,2.369,2.369,0,0,1,4.672.527V37.207l-8.166,2.724a1.429,1.429,0,0,1-.456.077h-10a1.442,1.442,0,0,1-.456-.071l-5.922-1.966a2.617,2.617,0,0,0-3.429,2.475v7.005a2.623,2.623,0,0,0,2.617,2.617h1.871L133.8,52.017h0a.592.592,0,1,0,.835.835l2.789-2.783H154.7l2.789,2.789a.592.592,0,0,0,.835-.835l-1.954-1.954h1.871a2.623,2.623,0,0,0,2.623-2.617v-26.4a3.553,3.553,0,0,0-3.553-3.553Zm-.592,6.514v2.369h-4.737V24.014a2.369,2.369,0,1,1,4.737,0Zm2.961,23.438a1.439,1.439,0,0,1-1.433,1.433H133.875a1.439,1.439,0,0,1-1.433-1.433V40.446a1.427,1.427,0,0,1,1.889-1.362l5.922,1.966a2.621,2.621,0,0,0,.829.136h9.978a2.608,2.608,0,0,0,.829-.136l7.793-2.594Z" fill="#c8a33b" stroke="#c8a33b" stroke-width="0.5"/>
  </g>
</svg>
