<svg xmlns="http://www.w3.org/2000/svg" width="27.75" height="34.455" viewBox="0 0 27.75 34.455">
  <g id="noun-ceiling-2119295" transform="translate(-199.066 -98.325)">
    <path id="Path_54" data-name="Path 54" d="M341.8,440.45h1.508v3.006H341.8Z" transform="translate(-129.614 -310.676)" fill="#c8a33b"/>
    <path id="Path_55" data-name="Path 55" d="M396.09,405.679l.754-1.306,2.6,1.5-.754,1.306Z" transform="translate(-178.913 -277.915)" fill="#c8a33b"/>
    <path id="Path_56" data-name="Path 56" d="M267.35,405.781l2.6-1.5.754,1.306-2.6,1.5Z" transform="translate(-62.007 -277.829)" fill="#c8a33b"/>
    <path id="Path_57" data-name="Path 57" d="M225.568,121.439v-.171a12.65,12.65,0,0,0-9.5-12.236V106.68a.76.76,0,0,0-.754-.754h-1.629v-7.6h-1.508v7.591h-1.629a.76.76,0,0,0-.754.754v2.353a12.65,12.65,0,0,0-9.5,12.236v.171h-1.227v1.508H208.8a3.727,3.727,0,0,0-.03.473,4.172,4.172,0,0,0,8.345,0,3.727,3.727,0,0,0-.03-.473h9.733v-1.508h-1.247Zm-14.256-14.005h3.247v1.317a12.43,12.43,0,0,0-1.629-.1,14.454,14.454,0,0,0-1.629.1v-1.317Zm-9.491,13.834a11.12,11.12,0,0,1,22.239,0v.171H201.821ZM215.6,123.42a2.664,2.664,0,0,1-5.328,0,3.592,3.592,0,0,1,.04-.473h5.238a2.43,2.43,0,0,1,.05.473Z" fill="#c8a33b"/>
  </g>
</svg>
