<svg xmlns="http://www.w3.org/2000/svg" width="35.314" height="23.946" viewBox="0 0 35.314 23.946">
  <g id="Fitness_Centre" data-name="Fitness Centre" transform="translate(-937.5 -3223.285)">
    <g id="noun-fitness-2662732" transform="translate(752.157 3762.258)">
      <path id="Path_97" data-name="Path 97" d="M120.1,114.151h-.572v-1.716a2.287,2.287,0,0,0-2.288-2.288,2.264,2.264,0,0,0-1.144.318V107.86a2.86,2.86,0,0,0-5.719,0v6.291H98.939V107.86a2.86,2.86,0,0,0-5.719,0v2.605a2.264,2.264,0,0,0-1.144-.318,2.287,2.287,0,0,0-2.288,2.288v1.716h-.572a1.715,1.715,0,0,0-1.716,1.716v1.144a1.716,1.716,0,0,0,1.716,1.716h.572v1.716a2.287,2.287,0,0,0,2.288,2.288,2.264,2.264,0,0,0,1.144-.318v2.605a2.86,2.86,0,0,0,5.719,0v-6.291h11.438v6.291a2.86,2.86,0,0,0,5.719,0v-2.605a2.264,2.264,0,0,0,1.144.318,2.287,2.287,0,0,0,2.288-2.288v-1.716h.572a1.716,1.716,0,0,0,1.716-1.716v-1.144a1.715,1.715,0,0,0-1.716-1.716Zm-30.883,3.431a.572.572,0,0,1-.572-.572v-1.144a.572.572,0,0,1,.572-.572h.572v2.288Zm2.86,4a1.144,1.144,0,0,1-1.144-1.144v-8.007a1.144,1.144,0,1,1,2.288,0v8.007a1.144,1.144,0,0,1-1.144,1.144Zm5.719,3.431a1.716,1.716,0,1,1-3.431,0V107.86a1.716,1.716,0,1,1,3.431,0Zm1.144-7.435V115.3h11.438v2.288Zm16.013,7.435a1.716,1.716,0,1,1-3.431,0V107.86a1.716,1.716,0,1,1,3.431,0Zm3.431-4.575a1.144,1.144,0,1,1-2.288,0v-8.007a1.144,1.144,0,1,1,2.288,0Zm2.288-3.431a.572.572,0,0,1-.572.572h-.572V115.3h.572a.572.572,0,0,1,.572.572Z" transform="translate(98.342 -643.439)" fill="#d2ac47" stroke="#d2ac47" stroke-width="1"/>
    </g>
  </g>
</svg>
