<svg xmlns="http://www.w3.org/2000/svg" width="25.604" height="34.62" viewBox="0 0 25.604 34.62">
  <g id="Terrace_jogging_track" data-name="Terrace jogging track" transform="translate(-941.5 -3140.32)">
    <g id="noun-running-track-4020602" transform="translate(942 3140.82)">
      <path id="Path_270" data-name="Path 270" d="M193.184,48.758h-.239a12.2,12.2,0,0,0-12.158,11.416h0a.418.418,0,0,0-.024.142.442.442,0,0,0,.012.1c-.007.174-.012.349-.012.525V70.2a12.2,12.2,0,0,0,12.183,12.181h.239A12.2,12.2,0,0,0,205.367,70.2V60.94a12.2,12.2,0,0,0-12.183-12.181ZM204.515,70.2a11.341,11.341,0,0,1-11.329,11.329h-.239A11.343,11.343,0,0,1,181.616,70.2V60.742h2.269q-.026.339-.026.685v8.281a9.123,9.123,0,0,0,9.118,9.113h.175a9.124,9.124,0,0,0,9.114-9.113V61.427a9.124,9.124,0,0,0-9.114-9.113h-.175a9.128,9.128,0,0,0-8.985,7.576h-2.326a11.344,11.344,0,0,1,11.28-10.279h.239a11.343,11.343,0,0,1,11.329,11.329Zm-16.707-8.488a5.207,5.207,0,0,1,5.2-5.2h.114a5.207,5.207,0,0,1,5.2,5.2v7.721h0a5.206,5.206,0,0,1-5.2,5.206h-.114a5.206,5.206,0,0,1-5.2-5.2Zm5.2,13.775h.114a6.061,6.061,0,0,0,6.055-6.054V61.708a6.062,6.062,0,0,0-6.055-6.055h-.114a6.067,6.067,0,0,0-5.775,4.236h-2.372a8.274,8.274,0,0,1,8.117-6.725h.175a8.269,8.269,0,0,1,8.261,8.263v8.281a8.269,8.269,0,0,1-8.261,8.263h-.175a8.269,8.269,0,0,1-8.261-8.263V61.427c0-.231.01-.459.029-.685h2.286a6.037,6.037,0,0,0-.08.965v7.721a6.061,6.061,0,0,0,6.056,6.054Z" transform="translate(-180.763 -48.758)" fill="#d2ac47" stroke="#d2ac47" stroke-width="1"/>
    </g>
  </g>
</svg>
