<svg xmlns="http://www.w3.org/2000/svg" width="35.128" height="27.47" viewBox="0 0 35.128 27.47">
  <g id="Childrens_Play_area" data-name="Childrens Play area" transform="translate(-936.75 -3290.57)">
    <path id="Path_474" data-name="Path 474" d="M120.2,74.223H86a.215.215,0,0,0-.215.215v26.54a.215.215,0,0,0,.43,0V77.135h5.1V95.317h-.652a.215.215,0,0,0-.215.215v1a.215.215,0,0,0,.215.215h9.558a.215.215,0,0,0,.215-.215v-1a.215.215,0,0,0-.215-.215h-.652V77.135h7.058V95.317h-.649a.215.215,0,0,0-.215.215v1a.215.215,0,0,0,.215.215h9.555a.215.215,0,0,0,.215-.215v-1a.215.215,0,0,0-.215-.215h-.65V77.135h5.1v23.843a.215.215,0,0,0,.43,0V74.438a.215.215,0,0,0-.215-.215ZM100.01,95.747v.571H90.883v-.571Zm-8.26-.43V77.135h7.393V95.317Zm23.573.43v.571H106.2v-.571Zm-8.261-.43V77.135h7.4V95.317Zm12.925-18.612H86.219V74.653h33.768v2.052Z" transform="translate(851.211 3216.597)" fill="#d2ac47" stroke="#d2ac47" stroke-width="0.5"/>
  </g>
</svg>
