<svg xmlns="http://www.w3.org/2000/svg" width="27.015" height="33.034" viewBox="0 0 27.015 33.034">
  <g id="noun-elderly-3864139" transform="translate(0.5 0.5)">
    <path id="Path_475" data-name="Path 475" d="M134.507,8a4,4,0,1,1,4-4A4,4,0,0,1,134.507,8Zm0-1a3,3,0,1,0-3-3A3,3,0,0,0,134.507,7Zm-2.088,2.72,3.349,4.784h5.743a.5.5,0,0,1,0,1h-6a.5.5,0,0,1-.41-.213l-2.951-4.215-3.47,9.543,7.918,1.4a.5.5,0,0,1,.4.384l2,9.005a.5.5,0,0,1-.977.217l-1.929-8.679L127.916,21.5a.5.5,0,0,1-.383-.664l4-11.006a.5.5,0,0,1,.884-.111ZM123,26.015a.5.5,0,1,1,0-1h10.006a.5.5,0,0,1,.5.5v6a.5.5,0,0,1-1,0v-5.5Zm25.515,5.5a.5.5,0,0,1-1,0V15.259a1.251,1.251,0,1,0-2.5,0v1.251a.5.5,0,1,1-1,0V15.259a2.251,2.251,0,0,1,4.5,0Z" transform="translate(-122.5)" fill="#c8a33b" stroke="#d2ac47" stroke-width="1"/>
  </g>
</svg>
